:FULLY-SPECIFIED
:FORCE-ALL-JOINTS-BE-3DOF
:DEGREES
374
root 6.18429 16.5206 -15.7948 8.89215 -16.63 -5.8612
lfemur -39.1446 19.9511 -10.7799
ltibia 56.8867 -0 0
lfoot -5.36782 0.508629 -0.179136
ltoes 13.6269 -0 0
rfemur -23.4589 -4.13132 30.4222
rtibia 41.0386 -0 0
rfoot -20.9752 0.770661 0.00697465
rtoes 15.973 -0 0
lowerback 4.32835 1.92494 3.08489
upperback 2.37008 2.66302 0.941664
thorax 0.150112 1.35213 -0.885904
lowerneck -7.42475 -1.69986 2.82859
upperneck 0.131363 -2.57449 2.39952
head 1.3045 -1.23561 0.183982
lclavicle 7.55382e-15 -4.37326e-15 0
lhumerus -40.9112 -22.8824 95.654
lradius 55.4053 -0 0
lwrist 16.9977 0 0
lhand -18.2241 3.5658 0.173003
lfingers 7.12502 -0 0
lthumb 8.04857 33.2715 0.141752
rclavicle 7.55382e-15 -4.37326e-15 0
rhumerus -38.4781 12.2484 -93.5282
rradius 62.1955 -0 0
rwrist 8.45326 0 0
rhand -16.6225 -22.8933 0.678667
rfingers 7.12502 -0 0
rthumb 9.59457 -52.4381 0.669321
375
root 6.13867 16.5251 -15.676 9.01511 -17.4801 -6.04848
lfemur -40.5623 20.013 -11.4093
ltibia 56.0072 -0 0
lfoot -5.91279 0.978999 -0.152241
ltoes 13.5765 -0 0
rfemur -22.7575 -3.39312 30.5991
rtibia 40.7206 -0 0
rfoot -21.3038 0.740261 0.00592826
rtoes 16.3986 -0 0
lowerback 4.46069 2.02922 3.25081
upperback 2.39117 2.81264 0.894123
thorax 0.108067 1.42768 -1.03469
lowerneck -7.41437 -1.53723 3.00025
upperneck 0.0776311 -2.36843 2.28959
head 1.27868 -1.13556 0.128605
lclavicle 7.55382e-15 -4.37326e-15 0
lhumerus -40.6798 -22.8418 95.1863
lradius 55.2845 -0 0
lwrist 17.0662 0 0
lhand -19.0189 3.25445 0.14702
lfingers 7.12502 -0 0
lthumb 7.28248 33.0068 0.120465
rclavicle 7.55382e-15 -4.37326e-15 0
rhumerus -38.4193 12.6544 -93.6396
rradius 61.3428 -0 0
rwrist 8.81569 0 0
rhand -15.5268 -22.0095 0.576515
rfingers 7.12502 -0 0
rthumb 10.6522 -51.535 0.568585
376
root 6.09306 16.5295 -15.5572 9.14158 -18.3299 -6.23859
lfemur -41.9812 20.0602 -12.0405
ltibia 55.1277 -0 0
lfoot -6.45751 1.44909 -0.120875
ltoes 13.5261 -0 0
rfemur -22.0543 -2.65715 30.785
rtibia 40.4026 -0 0
rfoot -21.6323 0.709866 0.00470755
rtoes 16.8242 -0 0
lowerback 4.59334 2.13312 3.41699
upperback 2.41215 2.96228 0.846631
thorax 0.0658238 1.50311 -1.18354
lowerneck -7.4035 -1.37463 3.17193
upperneck 0.0235116 -2.16248 2.17947
head 1.25277 -1.03554 0.0731844
lclavicle 7.55382e-15 -4.37326e-15 0
lhumerus -40.4488 -22.7994 94.7189
lradius 55.1636 -0 0
lwrist 17.1347 0 0
lhand -19.8135 2.94348 0.116721
lfingers 7.12502 -0 0
lthumb 6.5165 32.7424 0.0956414
rclavicle 7.55382e-15 -4.37326e-15 0
rhumerus -38.3612 13.0605 -93.7509
rradius 60.49 -0 0
rwrist 9.17812 0 0
rhand -14.4328 -21.1279 0.457496
rfingers 7.12502 -0 0
rthumb 11.7081 -50.634 0.451211
377
root 6.04744 16.534 -15.4383 9.27168 -19.1792 -6.43164
lfemur -43.4008 20.0928 -12.6728
ltibia 54.2482 -0 0
lfoot -7.00196 1.91886 -0.0850423
ltoes 13.4757 -0 0
rfemur -21.3491 -1.92351 30.9798
rtibia 40.0846 -0 0
rfoot -21.9609 0.67948 0.00331258
rtoes 17.2499 -0 0
lowerback 4.7263 2.23663 3.58341
upperback 2.43299 3.11194 0.799187
thorax 0.0233836 1.57843 -1.33245
lowerneck -7.39214 -1.21206 3.34363
upperneck -0.0309969 -1.95663 2.06917
head 1.22676 -0.935543 0.0177203
lclavicle 7.55382e-15 -4.37326e-15 0
lhumerus -40.2182 -22.7553 94.2518
lradius 55.0428 -0 0
lwrist 17.2032 0 0
lhand -20.6079 2.63296 0.0821123
lfingers 7.12502 -0 0
lthumb 5.75064 32.4783 0.0672852
rclavicle 7.55382e-15 -4.37326e-15 0
rhumerus -38.3039 13.4667 -93.8618
rradius 59.6373 -0 0
rwrist 9.54054 0 0
rhand -13.3408 -20.2487 0.321682
rfingers 7.12502 -0 0
rthumb 12.762 -49.7353 0.317268
378
root 6.00183 16.5384 -15.3195 9.40551 -20.0281 -6.62777
lfemur -44.821 20.1106 -13.306
ltibia 53.3687 -0 0
lfoot -7.5461 2.38827 -0.0447485
ltoes 13.4253 -0 0
rfemur -20.6416 -1.19233 31.1835
rtibia 39.7665 -0 0
rfoot -22.2894 0.649102 0.00174337
rtoes 17.6755 -0 0
lowerback 4.85958 2.33976 3.75009
upperback 2.45372 3.26162 0.751791
thorax -0.0192539 1.65365 -1.48143
lowerneck -7.38029 -1.04953 3.51535
upperneck -0.0858954 -1.75088 1.95869
head 1.20065 -0.835571 -0.0377878
lclavicle 7.55382e-15 -4.37326e-15 0
lhumerus -39.9882 -22.7095 93.7851
lradius 54.9219 -0 0
lwrist 17.2717 0 0
lhand -21.4022 2.32296 0.0432026
lfingers 7.12502 -0 0
lthumb 4.98492 32.2147 0.0354026
rclavicle 7.55382e-15 -4.37326e-15 0
rhumerus -38.2472 13.8731 -93.9726
rradius 58.7846 -0 0
rwrist 9.90297 0 0
rhand -12.2509 -19.3723 0.169152
rfingers 7.12502 -0 0
rthumb 13.8137 -48.8392 0.166835
379
root 5.95621 16.5429 -15.2007 9.54319 -20.8765 -6.8271
lfemur -46.2414 20.1137 -13.9394
ltibia 52.4892 0 0
lfoot -8.08989 2.85728 0
ltoes 13.3749 0 0
rfemur -19.9317 -0.463717 31.3962
rtibia 39.4485 0 0
rfoot -22.618 0.618733 0
rtoes 18.1011 0 0
lowerback 4.99316 2.4425 3.91702
upperback 2.47433 3.41131 0.704442
thorax -0.0620885 1.72875 -1.63046
lowerneck -7.36796 -0.887037 3.6871
upperneck -0.141185 -1.54524 1.84803
head 1.17445 -0.735625 -0.0933401
lclavicle 7.55382e-15 -4.37326e-15 0
lhumerus -39.7586 -22.6619 93.3187
lradius 54.8011 0 0
lwrist 17.3402 0 0
lhand -22.1962 2.01352 0
lfingers 7.12502 0 0
lthumb 4.21936 31.9515 0
rclavicle 7.55382e-15 -4.37326e-15 0
rhumerus -38.1913 14.2795 -94.0831
rradius 57.9319 0 0
rwrist 10.2654 0 0
rhand -11.1636 -18.4989 0
rfingers 7.12502 0 0
rthumb 14.8629 -767.946 0
